<?xml version="1.0" encoding="UTF-8" standalone="no"?>
<!-- Created with Inkscape (http://www.inkscape.org/) -->

<svg
   width="19.718964mm"
   height="21.41058mm"
   viewBox="0 0 19.718964 21.41058"
   version="1.1"
   id="svg932"
   sodipodi:docname="favicon_datia.svg"
   inkscape:version="1.1.1 (3bf5ae0d25, 2021-09-20)"
   xmlns:inkscape="http://www.inkscape.org/namespaces/inkscape"
   xmlns:sodipodi="http://sodipodi.sourceforge.net/DTD/sodipodi-0.dtd"
   xmlns="http://www.w3.org/2000/svg"
   xmlns:svg="http://www.w3.org/2000/svg">
  <sodipodi:namedview
     id="namedview934"
     pagecolor="#ffffff"
     bordercolor="#111111"
     borderopacity="1"
     inkscape:pageshadow="0"
     inkscape:pageopacity="0"
     inkscape:pagecheckerboard="1"
     inkscape:document-units="mm"
     showgrid="false"
     units="mm"
     inkscape:zoom="8"
     inkscape:cx="9.875"
     inkscape:cy="25.125"
     inkscape:window-width="3840"
     inkscape:window-height="2054"
     inkscape:window-x="3829"
     inkscape:window-y="-11"
     inkscape:window-maximized="1"
     inkscape:current-layer="layer1"
     inkscape:snap-global="false"
     fit-margin-top="0"
     fit-margin-left="0"
     fit-margin-right="0"
     fit-margin-bottom="0" />
  <defs
     id="defs929">
    <rect
       x="-75.48365"
       y="-86.090248"
       width="132.93608"
       height="74.776543"
       id="rect9857" />
    <rect
       x="77.149117"
       y="349.74268"
       width="594.04822"
       height="295.73828"
       id="rect3597" />
    <rect
       x="156.86987"
       y="357.13614"
       width="80.68512"
       height="71.362938"
       id="rect28615" />
    <rect
       x="156.86987"
       y="357.13614"
       width="80.68512"
       height="71.362938"
       id="rect28615-9" />
  </defs>
  <g
     inkscape:label="Capa 1"
     inkscape:groupmode="layer"
     id="layer1"
     transform="translate(-142.39571,-35.054623)">
    <g
       aria-label="D"
       transform="matrix(0.67063845,0,0,0.62313454,88.13507,-188.75952)"
       id="text3595"
       style="font-weight:bold;font-size:48px;line-height:1.25;-inkscape-font-specification:'sans-serif Bold';white-space:pre;shape-inside:url(#rect3597);fill:#506a5b">
      <path
         id="path1287"
         style="font-family:'Arial Rounded MT Bold';-inkscape-font-specification:'Arial Rounded MT Bold,  Bold';stroke-width:2.44328"
         d="M 12.650391,0 C 8.8483455,0 6.0975296,0.79068158 4.3945312,2.3730469 2.6915313,3.9554122 1.8398438,6.5141437 1.8398438,10.046875 V 20.289062 H 19.482422 v -7.316406 h 11.644531 c 5.38623,0 9.981158,0.550311 13.783203,1.654297 3.802045,1.067168 6.990148,3.588177 9.564453,7.5625 2.613898,3.974323 3.919922,9.954005 3.919922,17.939453 0,11.33418 -2.950476,19.320314 -8.851562,23.957032 -1.306954,1.067166 -2.850605,1.895587 -4.632813,2.484374 -1.782209,0.588868 -3.506527,0.956397 -5.169922,1.103516 -1.663394,0.147119 -3.959882,0.220703 -6.890625,0.220703 H 19.482422 V 48.714844 H 1.8398438 v 20.669922 c -10e-8,2.612745 0.237635,4.748326 0.7128906,6.404296 0.514861,1.619169 1.5832421,2.888624 3.2070312,3.808594 1.6237908,0.883183 4.040073,1.324219 7.2480464,1.324219 h 22.990235 c 4.000067,0 7.583582,-0.240371 10.751953,-0.71875 3.207976,-0.478395 6.19837,-1.304845 8.970703,-2.482422 2.772316,-1.177577 5.327394,-2.742993 7.664063,-4.693359 2.97036,-2.539155 5.405618,-5.407841 7.30664,-8.609375 1.901023,-3.238337 3.307848,-6.863874 4.21875,-10.875 0.910903,-4.01111 1.365235,-8.445229 1.365235,-13.302735 0,-14.719712 -4.534051,-25.685777 -13.603516,-32.8984371 C 59.186667,4.5082481 55.304644,2.5753018 51.027344,1.5449219 46.750047,0.51454192 41.622877,0 35.642578,0 Z"
         transform="matrix(0.39452455,0,0,0.42460065,80.219692,359.17467)" />
    </g>
    <rect
       style="fill:#506a5b;fill-opacity:1;stroke:#506a5b;stroke-width:0.0440894;stroke-linecap:square;stroke-linejoin:round;stroke-miterlimit:4;stroke-dasharray:none;stroke-dashoffset:0;stroke-opacity:1"
       id="rect1448"
       width="4.6267033"
       height="1.5771852"
       x="142.44087"
       y="39.174404"
       ry="0.081827849"
       rx="0.12294552" />
    <rect
       style="fill:#506a5b;fill-opacity:1;stroke:#506a5b;stroke-width:0.0440894;stroke-linecap:square;stroke-linejoin:round;stroke-miterlimit:4;stroke-dasharray:none;stroke-dashoffset:0;stroke-opacity:1"
       id="rect1448-3"
       width="4.6267033"
       height="1.5771852"
       x="142.43881"
       y="47.701904"
       ry="0.081827849"
       rx="0.12294552" />
    <rect
       style="fill:#506a5b;fill-opacity:1;stroke:#506a5b;stroke-width:0.0710906;stroke-linecap:square;stroke-linejoin:round;stroke-miterlimit:4;stroke-dasharray:none;stroke-dashoffset:0;stroke-opacity:1"
       id="rect1448-5"
       width="4.595912"
       height="4.1279869"
       x="142.45399"
       y="47.767948"
       ry="0.21416906"
       rx="0.081417635" />
    <rect
       style="opacity:0.912711;fill:#ff6c0a;fill-opacity:1;stroke:#ffffff;stroke-width:0.0631889;stroke-linecap:square;stroke-linejoin:round;stroke-miterlimit:4;stroke-dasharray:none;stroke-dashoffset:0;stroke-opacity:0"
       id="rect38972"
       width="5.7994261"
       height="3.226923"
       x="144.09772"
       y="42.624359"
       ry="0.18874636"
       rx="0.22493936" />
  </g>
</svg>
