<?xml version="1.0" encoding="UTF-8" standalone="no"?>
<!-- Created with Inkscape (http://www.inkscape.org/) -->

<svg
   width="44.931969mm"
   height="21.410511mm"
   viewBox="0 0 44.931969 21.410511"
   version="1.1"
   id="svg932"
   sodipodi:docname="logoDatia.svg"
   inkscape:version="1.1.1 (3bf5ae0d25, 2021-09-20)"
   xmlns:inkscape="http://www.inkscape.org/namespaces/inkscape"
   xmlns:sodipodi="http://sodipodi.sourceforge.net/DTD/sodipodi-0.dtd"
   xmlns="http://www.w3.org/2000/svg"
   xmlns:svg="http://www.w3.org/2000/svg">
  <sodipodi:namedview
     id="namedview934"
     pagecolor="#ffffff"
     bordercolor="#111111"
     borderopacity="1"
     inkscape:pageshadow="0"
     inkscape:pageopacity="0"
     inkscape:pagecheckerboard="1"
     inkscape:document-units="mm"
     showgrid="false"
     units="mm"
     inkscape:zoom="12.338057"
     inkscape:cx="103.5009"
     inkscape:cy="29.096964"
     inkscape:window-width="3840"
     inkscape:window-height="2054"
     inkscape:window-x="-11"
     inkscape:window-y="-11"
     inkscape:window-maximized="1"
     inkscape:current-layer="layer1"
     inkscape:snap-global="false"
     fit-margin-top="0"
     fit-margin-left="0"
     fit-margin-right="0"
     fit-margin-bottom="0" />
  <defs
     id="defs929">
    <rect
       x="-75.48365"
       y="-86.090248"
       width="132.93608"
       height="74.776543"
       id="rect9857" />
    <rect
       x="77.149117"
       y="349.74268"
       width="594.04822"
       height="295.73828"
       id="rect3597" />
    <rect
       x="156.86987"
       y="357.13614"
       width="80.68512"
       height="71.362938"
       id="rect28615" />
    <rect
       x="156.86987"
       y="357.13614"
       width="80.68512"
       height="71.362938"
       id="rect28615-9" />
  </defs>
  <g
     inkscape:label="Capa 1"
     inkscape:groupmode="layer"
     id="layer1"
     transform="translate(-141.93348,-35.054623)">
    <rect
       style="fill:#ffffff;fill-opacity:1;stroke:#ffffff;stroke-width:0.0690094;stroke-linecap:square;stroke-linejoin:round;stroke-miterlimit:4;stroke-dasharray:none;stroke-dashoffset:0;stroke-opacity:1"
       id="rect5800"
       width="0.033072915"
       height="0.23151042"
       x="171.14777"
       y="37.096203"
       ry="0.016536457" />
    <g
       aria-label="atia"
       transform="matrix(0.64451885,0,0,0.69433583,61.752014,-210.20308)"
       id="text28613"
       style="font-weight:bold;font-size:21.3333px;line-height:1.25;-inkscape-font-specification:'sans-serif Bold';white-space:pre;shape-inside:url(#rect28615-9);fill:#000000;fill-opacity:0.98">
      <path
         d="m 165.52538,375.25599 q -1.03125,0.80208 -2,1.20833 -0.95833,0.39583 -2.15625,0.39583 -1.09374,0 -1.92708,-0.42708 -0.82291,-0.4375 -1.27083,-1.17708 -0.44791,-0.73959 -0.44791,-1.60417 0,-1.16666 0.73958,-1.98958 0.73958,-0.82291 2.03124,-1.10416 0.27084,-0.0625 1.34375,-0.28125 1.07292,-0.21875 1.83333,-0.39583 0.77084,-0.1875 1.66667,-0.44792 -0.0521,-1.125 -0.45834,-1.64583 -0.39583,-0.53125 -1.65624,-0.53125 -1.08333,0 -1.63542,0.30208 -0.54166,0.30209 -0.9375,0.90625 -0.38541,0.60417 -0.55208,0.80208 -0.15625,0.1875 -0.6875,0.1875 -0.47916,0 -0.83333,-0.30208 -0.34375,-0.3125 -0.34375,-0.79167 0,-0.74999 0.53125,-1.45833 0.53125,-0.70833 1.65625,-1.16666 1.125,-0.45833 2.80208,-0.45833 1.87499,0 2.94791,0.44791 1.07291,0.4375 1.51041,1.39583 0.44792,0.95833 0.44792,2.54167 0,0.99999 -0.0104,1.69791 0,0.69792 -0.0104,1.55208 0,0.80208 0.26041,1.67708 0.27084,0.86458 0.27084,1.11458 0,0.4375 -0.41667,0.80208 -0.40625,0.35417 -0.92708,0.35417 -0.4375,0 -0.86458,-0.40625 -0.42709,-0.41666 -0.90625,-1.19791 z m -0.1875,-4.11458 q -0.625,0.22917 -1.82292,0.48958 -1.18749,0.25 -1.64583,0.375 -0.45833,0.11459 -0.875,0.46875 -0.41666,0.34375 -0.41666,0.96875 0,0.64583 0.48958,1.10416 0.48958,0.44792 1.28125,0.44792 0.84375,0 1.55208,-0.36458 0.71875,-0.375 1.05208,-0.95833 0.38542,-0.64584 0.38542,-2.125 z"
         style="font-family:'Arial Rounded MT Bold';-inkscape-font-specification:'Arial Rounded MT Bold,  Bold';fill:#000000"
         id="path1278" />
      <path
         d="m 170.63995,365.54767 h 0.3125 v -1.70833 q 0,-0.6875 0.0312,-1.07292 0.0417,-0.39583 0.20833,-0.67708 0.16667,-0.29167 0.47917,-0.46875 0.3125,-0.1875 0.69792,-0.1875 0.54166,0 0.97916,0.40625 0.29167,0.27083 0.36458,0.66667 0.0833,0.38541 0.0833,1.10416 v 1.9375 h 1.04166 q 0.60417,0 0.91667,0.29167 0.32291,0.28124 0.32291,0.72916 0,0.57292 -0.45833,0.80208 -0.44792,0.22917 -1.29166,0.22917 h -0.53125 v 5.22916 q 0,0.66666 0.0417,1.03125 0.0521,0.35416 0.25,0.58333 0.20834,0.21875 0.66667,0.21875 0.25,0 0.67708,-0.0833 0.42708,-0.0937 0.66667,-0.0937 0.34375,0 0.61458,0.28125 0.28125,0.27084 0.28125,0.67709 0,0.6875 -0.75,1.05208 -0.75,0.36458 -2.15625,0.36458 -1.33333,0 -2.02083,-0.44791 -0.6875,-0.44792 -0.90625,-1.23959 -0.20833,-0.79166 -0.20833,-2.11458 v -5.45832 h -0.375 q -0.61458,0 -0.9375,-0.29167 -0.32291,-0.29166 -0.32291,-0.73958 0,-0.44792 0.33333,-0.72916 0.34375,-0.29167 0.98958,-0.29167 z"
         style="font-family:'Arial Rounded MT Bold';-inkscape-font-specification:'Arial Rounded MT Bold,  Bold';fill:#000000"
         id="path1280" />
      <path
         d="m 180.87952,366.91225 v 8.21874 q 0,0.85416 -0.40625,1.29166 -0.40625,0.4375 -1.03125,0.4375 -0.625,0 -1.02083,-0.44791 -0.38542,-0.44792 -0.38542,-1.28125 v -8.13541 q 0,-0.84375 0.38542,-1.27083 0.39583,-0.42708 1.02083,-0.42708 0.625,0 1.03125,0.42708 0.40625,0.42708 0.40625,1.1875 z m -1.40625,-2.9375 q -0.59375,0 -1.02083,-0.36458 -0.41667,-0.36458 -0.41667,-1.03125 0,-0.60416 0.42709,-0.98958 0.4375,-0.39583 1.01041,-0.39583 0.55208,0 0.97917,0.35417 0.42708,0.35416 0.42708,1.03124 0,0.65625 -0.41667,1.03125 -0.41666,0.36458 -0.98958,0.36458 z"
         style="font-family:'Arial Rounded MT Bold';-inkscape-font-specification:'Arial Rounded MT Bold,  Bold';fill:#000000"
         id="path1282" />
      <path
         d="m 191.0045,375.25599 q -1.03125,0.80208 -1.99999,1.20833 -0.95834,0.39583 -2.15625,0.39583 -1.09375,0 -1.92708,-0.42708 -0.82292,-0.4375 -1.27083,-1.17708 -0.44792,-0.73959 -0.44792,-1.60417 0,-1.16666 0.73958,-1.98958 0.73959,-0.82291 2.03125,-1.10416 0.27083,-0.0625 1.34375,-0.28125 1.07291,-0.21875 1.83333,-0.39583 0.77083,-0.1875 1.66666,-0.44792 -0.0521,-1.125 -0.45833,-1.64583 -0.39583,-0.53125 -1.65625,-0.53125 -1.08333,0 -1.63541,0.30208 -0.54167,0.30209 -0.9375,0.90625 -0.38542,0.60417 -0.55208,0.80208 -0.15625,0.1875 -0.6875,0.1875 -0.47917,0 -0.83333,-0.30208 -0.34375,-0.3125 -0.34375,-0.79167 0,-0.74999 0.53125,-1.45833 0.53125,-0.70833 1.65624,-1.16666 1.125,-0.45833 2.80208,-0.45833 1.875,0 2.94792,0.44791 1.07291,0.4375 1.51041,1.39583 0.44792,0.95833 0.44792,2.54167 0,0.99999 -0.0104,1.69791 0,0.69792 -0.0104,1.55208 0,0.80208 0.26042,1.67708 0.27083,0.86458 0.27083,1.11458 0,0.4375 -0.41666,0.80208 -0.40625,0.35417 -0.92709,0.35417 -0.4375,0 -0.86458,-0.40625 -0.42708,-0.41666 -0.90625,-1.19791 z m -0.1875,-4.11458 q -0.625,0.22917 -1.82291,0.48958 -1.1875,0.25 -1.64583,0.375 -0.45833,0.11459 -0.875,0.46875 -0.41667,0.34375 -0.41667,0.96875 0,0.64583 0.48959,1.10416 0.48958,0.44792 1.28124,0.44792 0.84375,0 1.55209,-0.36458 0.71874,-0.375 1.05208,-0.95833 0.38541,-0.64584 0.38541,-2.125 z"
         style="font-family:'Arial Rounded MT Bold';-inkscape-font-specification:'Arial Rounded MT Bold,  Bold';fill:#000000"
         id="path1284" />
    </g>
    <g
       aria-label="Analytics"
       transform="matrix(1.0566206,0,0,0.79294232,13.163622,-32.063063)"
       id="text85335"
       style="font-size:3.56122px;line-height:1.25;font-family:'Arial Rounded MT';-inkscape-font-specification:'Arial Rounded MT';fill:#ff6c0a;fill-opacity:1;stroke-width:0.8903">
      <path
         d="m 150.80942,108.52378 0.2849,0.70156 q 0.032,0.0748 0.057,0.11396 0.0285,0.0392 0.089,0.0392 0.0605,0 0.0926,-0.0392 0.032,-0.0392 0.032,-0.0748 0,-0.0285 -0.007,-0.0534 -0.007,-0.0249 -0.0321,-0.0819 l -0.92948,-2.18659 q -0.0463,-0.10328 -0.0784,-0.14957 -0.032,-0.0499 -0.11396,-0.0499 -0.0819,0 -0.11752,0.0499 -0.0356,0.0499 -0.0748,0.15313 l -0.89031,2.19371 q -0.0249,0.057 -0.032,0.0819 -0.007,0.0214 -0.007,0.0499 0,0.0392 0.032,0.0712 0.0356,0.0356 0.0855,0.0356 0.0641,0 0.089,-0.0392 0.0249,-0.0356 0.0534,-0.1104 l 0.27777,-0.70512 z m -1.11466,-0.19943 0.50569,-1.28916 0.52706,1.28916 z"
         id="path1259"
         style="fill:#ff6c0a;fill-opacity:1" />
      <path
         d="m 153.12421,108.13205 q 0,-0.0427 -0.004,-0.0997 -0.004,-0.0605 -0.0178,-0.1282 -0.0107,-0.0677 -0.0392,-0.13533 -0.0285,-0.0677 -0.0783,-0.12464 -0.0214,-0.0249 -0.0641,-0.057 -0.0392,-0.0356 -0.0997,-0.0641 -0.057,-0.032 -0.13889,-0.0534 -0.0819,-0.0214 -0.18874,-0.0214 -0.12821,0 -0.22436,0.032 -0.0926,0.0285 -0.16381,0.0748 -0.0677,0.0463 -0.11752,0.10327 -0.0499,0.0534 -0.089,0.10328 v -0.13533 q 0,-0.032 -0.004,-0.0641 0,-0.0321 -0.0107,-0.057 -0.007,-0.0285 -0.0285,-0.0427 -0.0214,-0.0178 -0.0641,-0.0178 -0.0427,0 -0.0641,0.0178 -0.0214,0.0178 -0.032,0.0463 -0.0107,0.0249 -0.0143,0.057 0,0.032 0,0.0605 v 1.5705 q 0,0.0641 0.0143,0.12464 0.0142,0.057 0.0961,0.057 0.0427,0 0.0641,-0.0178 0.0214,-0.0143 0.0285,-0.0392 0.0107,-0.0285 0.0107,-0.0605 0.004,-0.032 0.004,-0.0641 v -0.66239 q 0,-0.23504 0.0107,-0.35968 0.0142,-0.12464 0.0534,-0.21011 0.0712,-0.15313 0.21367,-0.2386 0.14601,-0.089 0.29914,-0.089 0.1104,0 0.20299,0.0463 0.0961,0.0463 0.15313,0.12821 0.0499,0.0712 0.0606,0.16737 0.0142,0.0962 0.0142,0.21012 v 1.00782 q 0,0.032 0,0.0641 0.004,0.0321 0.0107,0.0605 0.0107,0.0249 0.032,0.0392 0.0214,0.0178 0.0641,0.0178 0.0427,0 0.0641,-0.0178 0.0214,-0.0143 0.032,-0.0392 0.0107,-0.0285 0.0107,-0.0605 0.004,-0.032 0.004,-0.0641 z"
         id="path1261"
         style="fill:#ff6c0a;fill-opacity:1" />
      <path
         d="m 154.85852,108.17478 q -0.0712,0.0356 -0.21367,0.0605 -0.14245,0.0249 -0.40954,0.0677 -0.0997,0.0178 -0.2208,0.0427 -0.12108,0.0249 -0.22792,0.0855 -0.10327,0.057 -0.1745,0.16025 -0.0712,0.0997 -0.0712,0.2671 0,0.10683 0.0392,0.20299 0.0392,0.0926 0.11396,0.16381 0.0748,0.0712 0.18163,0.1104 0.10683,0.0427 0.24572,0.0427 0.21723,0 0.4131,-0.0783 0.19943,-0.0819 0.349,-0.24217 0.007,0.0641 0.0178,0.12465 0.0107,0.057 0.0249,0.10327 0.0178,0.0427 0.0463,0.0677 0.0285,0.0285 0.0712,0.0285 0.0285,0 0.0641,-0.0249 0.0392,-0.0214 0.0392,-0.0712 0,-0.0249 -0.0178,-0.0783 -0.0142,-0.0534 -0.032,-0.11753 -0.0178,-0.0605 -0.0249,-0.14244 -0.004,-0.0819 -0.004,-0.14245 0,-0.032 0,-0.11396 0.004,-0.0819 0.004,-0.1745 0,-0.0962 0,-0.17806 0.004,-0.0855 0.004,-0.12108 0,-0.14601 -0.0107,-0.2849 -0.0107,-0.13889 -0.0783,-0.24573 -0.0641,-0.10683 -0.21012,-0.17093 -0.14245,-0.0677 -0.40598,-0.0677 -0.24572,0 -0.39885,0.0641 -0.14957,0.0641 -0.23148,0.14958 -0.0819,0.0855 -0.1104,0.16737 -0.0285,0.0784 -0.0285,0.1104 0,0.0534 0.0321,0.0819 0.0356,0.0249 0.0712,0.0249 0.0534,0 0.0748,-0.0321 0.0214,-0.032 0.0605,-0.13177 0.0356,-0.089 0.1104,-0.14245 0.0748,-0.0534 0.15669,-0.0783 0.0855,-0.0285 0.16382,-0.0356 0.0784,-0.007 0.12108,-0.007 0.057,0 0.11752,0.007 0.0641,0.007 0.11752,0.0285 0.057,0.0178 0.10328,0.0534 0.0498,0.032 0.0783,0.089 0.0356,0.0677 0.0427,0.14957 0.007,0.0784 0.007,0.22792 z m 0,0.17094 q 0.004,0.18874 -0.0107,0.29914 -0.0107,0.10684 -0.0499,0.19587 -0.0392,0.0855 -0.1104,0.14957 -0.0712,0.0641 -0.16025,0.10684 -0.089,0.0392 -0.18519,0.0605 -0.0961,0.0214 -0.17806,0.0214 -0.12108,0 -0.19942,-0.0356 -0.0748,-0.0392 -0.12109,-0.0926 -0.0427,-0.0534 -0.0605,-0.1104 -0.0142,-0.057 -0.0142,-0.0997 0,-0.1104 0.0534,-0.1745 0.057,-0.0677 0.13532,-0.10328 0.0819,-0.0356 0.17094,-0.0534 0.0926,-0.0178 0.16738,-0.032 0.17094,-0.0356 0.32407,-0.0606 0.15313,-0.0285 0.2386,-0.0712 z"
         id="path1263"
         style="fill:#ff6c0a;fill-opacity:1" />
      <path
         d="m 155.84141,106.92479 q 0,-0.032 -0.004,-0.0641 0,-0.0321 -0.0107,-0.057 -0.0107,-0.0285 -0.032,-0.0427 -0.0214,-0.0178 -0.0641,-0.0178 -0.0392,0 -0.0605,0.0178 -0.0214,0.0142 -0.032,0.0427 -0.0107,0.0249 -0.0142,0.057 0,0.032 0,0.0641 v 2.27562 q 0,0.032 0,0.0641 0.004,0.0285 0.0142,0.057 0.0107,0.0249 0.032,0.0392 0.0214,0.0178 0.0641,0.0178 0.0783,0 0.0926,-0.057 0.0142,-0.0605 0.0142,-0.12108 z"
         id="path1265"
         style="fill:#ff6c0a;fill-opacity:1" />
      <path
         d="m 157.03442,109.08645 -0.56624,-1.48859 q -0.0249,-0.0677 -0.0499,-0.10683 -0.0214,-0.0427 -0.0819,-0.0427 -0.0499,0 -0.0784,0.0356 -0.0285,0.0321 -0.0285,0.0677 0,0.0249 0.007,0.0463 0.007,0.0214 0.0249,0.0712 l 0.65883,1.66665 -0.12821,0.32407 q -0.0392,0.0926 -0.0855,0.14601 -0.0463,0.057 -0.14957,0.057 -0.0178,0 -0.0712,-0.004 -0.0499,-0.004 -0.0712,-0.004 -0.0498,0 -0.0748,0.032 -0.0214,0.032 -0.0214,0.0677 0,0.0427 0.0249,0.0677 0.0285,0.0249 0.0677,0.0392 0.0392,0.0142 0.0819,0.0178 0.0463,0.004 0.0784,0.004 0.057,0 0.11396,-0.0143 0.057,-0.0142 0.11039,-0.057 0.057,-0.0392 0.10684,-0.11396 0.0534,-0.0748 0.10328,-0.19587 l 0.81195,-2.05838 q 0.0178,-0.0463 0.0249,-0.0641 0.007,-0.0178 0.007,-0.0427 0,-0.0285 -0.0285,-0.057 -0.0285,-0.032 -0.0712,-0.032 -0.0499,0 -0.0712,0.032 -0.0214,0.032 -0.0463,0.0926 z"
         id="path1267"
         style="fill:#ff6c0a;fill-opacity:1" />
      <path
         d="m 158.46246,107.15271 q 0,-0.0997 -0.0143,-0.16025 -0.0142,-0.0605 -0.0961,-0.0605 -0.0819,0 -0.0961,0.0641 -0.0107,0.0641 -0.0107,0.16737 v 0.32764 h -0.11039 q -0.0356,0 -0.089,0.0107 -0.0499,0.0107 -0.0499,0.0712 0,0.0285 0.0142,0.0463 0.0143,0.0143 0.0356,0.0214 0.0214,0.007 0.0463,0.0107 0.0249,0 0.0427,0 h 0.11039 v 1.23931 q 0,0.0819 0.007,0.16737 0.007,0.0819 0.0427,0.14958 0.0392,0.0677 0.12108,0.11395 0.0819,0.0427 0.23148,0.0427 0.11396,0 0.18162,-0.0249 0.0712,-0.0214 0.0712,-0.0819 0,-0.0356 -0.0214,-0.0605 -0.0214,-0.0249 -0.0605,-0.0249 -0.007,0 -0.0285,0.004 -0.0214,0 -0.0463,0.004 -0.0214,0.004 -0.0427,0.007 -0.0214,0 -0.0321,0 -0.13533,0 -0.17094,-0.0748 -0.0356,-0.0783 -0.0356,-0.24572 v -1.21438 h 0.19943 q 0.0356,0 0.0855,-0.0107 0.0534,-0.0107 0.0534,-0.0712 0,-0.0285 -0.0142,-0.0427 -0.0143,-0.0178 -0.0356,-0.0249 -0.0214,-0.007 -0.0463,-0.007 -0.0249,-0.004 -0.0427,-0.004 h -0.19943 z"
         id="path1269"
         style="fill:#ff6c0a;fill-opacity:1" />
      <path
         d="m 159.40974,107.62991 q 0,-0.0285 -0.004,-0.0605 0,-0.0321 -0.0107,-0.057 -0.0107,-0.0285 -0.032,-0.0463 -0.0214,-0.0178 -0.0605,-0.0178 -0.0427,0 -0.0641,0.0178 -0.0214,0.0142 -0.032,0.0427 -0.0107,0.0249 -0.0143,0.057 0,0.032 0,0.0641 v 1.5705 q 0,0.032 0,0.0641 0.004,0.0285 0.0143,0.057 0.0107,0.0249 0.032,0.0392 0.0214,0.0178 0.0641,0.0178 0.0784,0 0.0926,-0.057 0.0143,-0.0605 0.0143,-0.12108 z m 0.032,-0.67663 q 0,-0.0605 -0.0427,-0.0997 -0.0392,-0.0392 -0.0961,-0.0392 -0.0605,0 -0.0997,0.0392 -0.0392,0.0392 -0.0392,0.0997 0,0.057 0.0392,0.0997 0.0392,0.0392 0.0997,0.0392 0.057,0 0.0961,-0.0392 0.0427,-0.0427 0.0427,-0.0997 z"
         id="path1271"
         style="fill:#ff6c0a;fill-opacity:1" />
      <path
         d="m 159.85133,108.42407 q 0,0.16737 0.0392,0.33831 0.0427,0.16738 0.13889,0.30627 0.0961,0.13532 0.25641,0.22435 0.16381,0.0855 0.40954,0.0855 0.0641,0 0.13888,-0.0107 0.0784,-0.007 0.15314,-0.032 0.0783,-0.0285 0.15313,-0.0748 0.0784,-0.0463 0.14601,-0.11752 0.089,-0.0961 0.13889,-0.19586 0.0534,-0.10328 0.0534,-0.15314 0,-0.0321 -0.0142,-0.0534 -0.0142,-0.0214 -0.032,-0.0321 -0.0178,-0.0107 -0.0356,-0.0142 -0.0178,-0.004 -0.0249,-0.004 -0.032,0 -0.057,0.0214 -0.0249,0.0214 -0.0463,0.0748 -0.0214,0.0427 -0.0605,0.11396 -0.0356,0.0677 -0.10327,0.13533 -0.0641,0.0677 -0.16738,0.11752 -0.10328,0.0463 -0.25285,0.0463 -0.28846,0 -0.45227,-0.21367 -0.16382,-0.21367 -0.16382,-0.59116 0,-0.21368 0.057,-0.35969 0.0605,-0.14957 0.14957,-0.2386 0.0926,-0.0926 0.20299,-0.13176 0.11396,-0.0392 0.22436,-0.0392 0.0392,0 0.10327,0.0107 0.0677,0.007 0.14245,0.0427 0.0784,0.032 0.15314,0.0997 0.0748,0.0677 0.1282,0.18162 0.0285,0.057 0.0499,0.0784 0.0214,0.0178 0.0605,0.0178 0.0463,0 0.0748,-0.0285 0.0142,-0.0142 0.0178,-0.0285 0.004,-0.0178 0.004,-0.032 0,-0.0107 -0.0142,-0.0534 -0.0107,-0.0427 -0.0427,-0.0997 -0.0285,-0.057 -0.0819,-0.12108 -0.0534,-0.0641 -0.13532,-0.11752 -0.0819,-0.057 -0.19943,-0.0926 -0.11396,-0.0356 -0.26709,-0.0356 -0.23861,0 -0.40242,0.0855 -0.16026,0.0819 -0.25997,0.21724 -0.0961,0.13532 -0.13889,0.31338 -0.0427,0.1745 -0.0427,0.35969 z"
         id="path1273"
         style="fill:#ff6c0a;fill-opacity:1" />
      <path
         d="m 163.27365,108.81936 q 0,-0.14601 -0.0641,-0.2386 -0.0641,-0.0961 -0.16381,-0.15669 -0.0962,-0.0605 -0.21368,-0.0926 -0.11752,-0.0321 -0.22435,-0.057 -0.11753,-0.0249 -0.21724,-0.0534 -0.0961,-0.0285 -0.16738,-0.0677 -0.0712,-0.0392 -0.11396,-0.0926 -0.0392,-0.057 -0.0392,-0.13889 0,-0.0748 0.0356,-0.1282 0.0356,-0.057 0.0962,-0.0926 0.0641,-0.0392 0.14244,-0.057 0.0819,-0.0178 0.17094,-0.0178 0.0392,0 0.0855,0.004 0.0463,0.004 0.0962,0.0214 0.21723,0.0534 0.27777,0.23148 0.0249,0.0712 0.0463,0.0926 0.0214,0.0178 0.057,0.0178 0.032,0 0.0499,-0.0107 0.0214,-0.0142 0.032,-0.0285 0.0107,-0.0178 0.0142,-0.0321 0.004,-0.0142 0.004,-0.0214 0,-0.0107 -0.0178,-0.0819 -0.0178,-0.0748 -0.0855,-0.15669 -0.0677,-0.0819 -0.20298,-0.14601 -0.13533,-0.0677 -0.36681,-0.0677 -0.21723,0 -0.34544,0.0641 -0.1282,0.0641 -0.19587,0.15314 -0.0677,0.0855 -0.089,0.17094 -0.0178,0.0855 -0.0178,0.1282 0,0.11752 0.0498,0.20299 0.0534,0.0855 0.12109,0.13533 0.0534,0.0392 0.11039,0.0641 0.057,0.0249 0.13177,0.0498 0.0748,0.0214 0.1745,0.0463 0.10327,0.0249 0.24216,0.0641 0.0427,0.0107 0.10328,0.032 0.0641,0.0178 0.12108,0.057 0.057,0.0356 0.0961,0.0926 0.0427,0.057 0.0427,0.14245 0,0.0641 -0.032,0.12821 -0.0285,0.0605 -0.089,0.11039 -0.0605,0.0499 -0.15669,0.0819 -0.0926,0.0285 -0.22436,0.0285 -0.0463,0 -0.11752,-0.007 -0.0677,-0.007 -0.13888,-0.0392 -0.0712,-0.0321 -0.13889,-0.0926 -0.0677,-0.0641 -0.11396,-0.17094 -0.0178,-0.0463 -0.0392,-0.0819 -0.0214,-0.0356 -0.0712,-0.0356 -0.0392,0 -0.0748,0.0285 -0.032,0.0249 -0.032,0.0712 0,0.0784 0.0534,0.17806 0.0534,0.0962 0.13889,0.17094 0.032,0.0285 0.0748,0.057 0.0463,0.0285 0.10683,0.0499 0.0641,0.0214 0.14601,0.0356 0.0819,0.0142 0.19231,0.0142 0.24572,0 0.39173,-0.0641 0.14957,-0.0677 0.22436,-0.15669 0.0784,-0.0926 0.0997,-0.18519 0.0249,-0.0961 0.0249,-0.15313 z"
         id="path1275"
         style="fill:#ff6c0a;fill-opacity:1" />
    </g>
    <g
       aria-label="D"
       transform="matrix(0.67063845,0,0,0.62313454,88.13507,-188.75952)"
       id="text3595"
       style="font-weight:bold;font-size:48px;line-height:1.25;-inkscape-font-specification:'sans-serif Bold';white-space:pre;shape-inside:url(#rect3597);fill:#506a5b;fill-opacity:1">
      <path
         id="path1287"
         style="font-family:'Arial Rounded MT Bold';-inkscape-font-specification:'Arial Rounded MT Bold,  Bold';fill:#506a5b;fill-opacity:1;stroke-width:2.44328"
         d="M 12.650391,0 C 8.8483455,0 6.0975296,0.79068158 4.3945312,2.3730469 2.6915313,3.9554122 1.8398438,6.5141437 1.8398438,10.046875 V 20.289062 H 19.482422 v -7.316406 h 11.644531 c 5.38623,0 9.981158,0.550311 13.783203,1.654297 3.802045,1.067168 6.990148,3.588177 9.564453,7.5625 2.613898,3.974323 3.919922,9.954005 3.919922,17.939453 0,11.33418 -2.950476,19.320314 -8.851562,23.957032 -1.306954,1.067166 -2.850605,1.895587 -4.632813,2.484374 -1.782209,0.588868 -3.506527,0.956397 -5.169922,1.103516 -1.663394,0.147119 -3.959882,0.220703 -6.890625,0.220703 H 19.482422 V 48.714844 H 1.8398438 v 20.669922 c -10e-8,2.612745 0.237635,4.748326 0.7128906,6.404296 0.514861,1.619169 1.5832421,2.888624 3.2070312,3.808594 1.6237908,0.883183 4.040073,1.324219 7.2480464,1.324219 h 22.990235 c 4.000067,0 7.583582,-0.240371 10.751953,-0.71875 3.207976,-0.478395 6.19837,-1.304845 8.970703,-2.482422 2.772316,-1.177577 5.327394,-2.742993 7.664063,-4.693359 2.97036,-2.539155 5.405618,-5.407841 7.30664,-8.609375 1.901023,-3.238337 3.307848,-6.863874 4.21875,-10.875 0.910903,-4.01111 1.365235,-8.445229 1.365235,-13.302735 0,-14.719712 -4.534051,-25.685777 -13.603516,-32.8984371 C 59.186667,4.5082481 55.304644,2.5753018 51.027344,1.5449219 46.750047,0.51454192 41.622877,0 35.642578,0 Z"
         transform="matrix(0.39452455,0,0,0.42460065,80.219692,359.17467)" />
    </g>
    <rect
       style="fill:#506a5b;fill-opacity:1;stroke:#506a5b;stroke-width:0.0440627;stroke-linecap:square;stroke-linejoin:round;stroke-miterlimit:4;stroke-dasharray:none;stroke-dashoffset:0;stroke-opacity:1"
       id="rect1448"
       width="4.6210442"
       height="1.5772116"
       x="142.44273"
       y="39.170601"
       ry="0.081829228"
       rx="0.12279511" />
    <rect
       style="fill:#506a5b;fill-opacity:1;stroke:#506a5b;stroke-width:0.044546;stroke-linecap:square;stroke-linejoin:round;stroke-miterlimit:4;stroke-dasharray:none;stroke-dashoffset:0;stroke-opacity:1"
       id="rect1448-51"
       width="4.624352"
       height="1.6108463"
       x="142.4436"
       y="47.856586"
       ry="0.083574273"
       rx="0.122883" />
    <rect
       style="opacity:0.912711;fill:#ff6c0a;fill-opacity:1;stroke:#ffffff;stroke-width:0.0631889;stroke-linecap:square;stroke-linejoin:round;stroke-miterlimit:4;stroke-dasharray:none;stroke-dashoffset:0;stroke-opacity:0"
       id="rect38972"
       width="5.7994261"
       height="3.226923"
       x="144.16386"
       y="42.707043"
       ry="0.18874636"
       rx="0.22493936" />
  </g>
</svg>
